<?xml version="1.0" encoding="utf-8"?>
<!-- Generator: Adobe Illustrator 25.4.1, SVG Export Plug-In . SVG Version: 6.00 Build 0)  -->
<svg version="1.1" id="Layer_1" xmlns="http://www.w3.org/2000/svg" xmlns:xlink="http://www.w3.org/1999/xlink" x="0px" y="0px"
	 viewBox="0 0 188.9 177.8" style="enable-background:new 0 0 188.9 177.8;" xml:space="preserve">
<style type="text/css">
	.st0{fill:#ED2273;}
	.st1{display:none;}
	.st2{display:inline;fill:#4950A2;}
</style>
<g>
	<g>
		<g>
			<path class="st0" d="M45.9,145.4c-6.7,0-12.8-1.2-18.6-3.5c-5.5-2.2-10.4-5.5-14.5-9.6c-4.1-4.2-7.2-9.2-9.4-14.9
				C1.2,111.6,0,105.2,0,98.4C0,91.5,1.2,85,3.5,79.1c2.2-5.7,5.3-10.7,9.4-14.9c4.1-4.2,9-7.5,14.5-9.7c5.6-2.3,11.9-3.5,18.6-3.5
				c6.7,0,13,1.2,18.6,3.5c5.5,2.3,10.4,5.5,14.5,9.7c4.1,4.2,7.2,9.2,9.4,14.9c2.3,5.8,3.5,12.3,3.5,19.2c0,6.8-1.2,13.3-3.5,19.1
				c-2.2,5.6-5.3,10.7-9.4,14.8c-4.1,4.2-9,7.4-14.5,9.7C58.8,144.3,52.6,145.4,45.9,145.4z M45.2,77.8C40,77.8,35,80,31.5,83.9
				c-3.5,3.9-5.4,9.2-5.4,14.9s1.9,10.9,5.4,14.8c3.5,3.9,8.4,6.1,13.7,6.1c5.5,0,10.3-2.1,13.8-6.1c3.5-3.8,5.4-9.1,5.4-14.8
				s-1.9-11-5.4-14.8C55.6,80,50.7,77.8,45.2,77.8z"/>
		</g>
	</g>
	<g>
		<path class="st0" d="M78.8,153H36.8c-3.2,0-5.9,2.6-5.9,5.9V172c0,3.2,2.6,5.9,5.9,5.9h41.9c3.2,0,5.9-2.6,5.9-5.9v-13.1
			C84.6,155.7,82,153,78.8,153z"/>
		<path class="st0" d="M17.3,89.2H7.6c-4.2,0-7.6,3.4-7.6,7.6v73.5c0,4.2,3.4,7.6,7.6,7.6h9.7c4.2,0,7.6-3.4,7.6-7.6V96.7
			C24.8,92.6,21.4,89.2,17.3,89.2z"/>
	</g>
</g>
<g class="st1">
	<path class="st2" d="M114.8,151.8V80.7H141c0.3,0,0.8,0,1.1,0c4.2,0,7.9,0.6,11.1,1.8c3.1,1.2,5.7,2.9,7.9,5.1
		c4,4.2,6.2,10.4,6.4,17.7c0.1,4-0.5,7.5-1.7,10.6c-1.2,3-2.9,5.6-5.3,7.7c-2.3,2.1-5.1,3.7-8.5,4.8c-3.3,1.1-6.9,1.7-11.1,1.8
		l-5.5,0.2v21.5L114.8,151.8z M138.4,97.8c-0.2,0-0.3,0-0.4,0l-4.4,0.1l0.3,15.7l4.4-0.2c3-0.1,5.3-0.8,6.9-2.2s2.3-3.4,2.3-5.9
		c0-1.6-0.4-3.8-2.2-5.4C143.8,98.6,141.4,97.8,138.4,97.8z"/>
	<path class="st2" d="M204,151.9c-5.2,0-10-0.9-14.4-2.7c-4.3-1.7-8-4.3-11.2-7.4c-3.2-3.3-5.6-7.1-7.3-11.6
		c-1.8-4.5-2.7-9.5-2.7-14.8c0-5.4,0.9-10.4,2.7-14.9c1.7-4.4,4.1-8.3,7.3-11.6c3.2-3.3,6.9-5.8,11.2-7.5c4.4-1.8,9.2-2.7,14.4-2.7
		c5.2,0,10.1,0.9,14.4,2.7c4.3,1.8,8,4.3,11.2,7.5c3.2,3.3,5.6,7.1,7.3,11.6c1.8,4.5,2.7,9.5,2.7,14.9c0,5.3-0.9,10.3-2.7,14.8
		c-1.7,4.4-4.1,8.3-7.3,11.5c-3.2,3.3-6.9,5.8-11.2,7.5C214,151,209.2,151.9,204,151.9z M203.5,99.5c-4.1,0-7.9,1.7-10.6,4.7
		s-4.2,7.1-4.2,11.6c0,4.4,1.5,8.5,4.2,11.5c2.7,3,6.5,4.7,10.6,4.7c4.3,0,7.9-1.6,10.7-4.7c2.7-2.9,4.2-7,4.2-11.5
		s-1.5-8.5-4.2-11.5C211.5,101.2,207.7,99.5,203.5,99.5z"/>
	<path class="st2" d="M276.6,155.7c-5.3,0-10.2-0.8-14.7-2.4c-4.7-1.6-8.7-4-12.1-7.1c-7.3-6.6-11.1-16.2-11.1-27.5
		c0-5.3,0.8-10.1,2.5-14.7c1.7-4.5,4-8.4,7.2-11.9c6.6-7.1,16.2-10.8,27.4-10.8c5.4,0,11,1.1,16.2,3.4c5.1,2.2,9.5,5.4,13.1,9.1
		l0.6,0.7L292,105.6l-0.5-0.4c-4.5-4.2-9.8-6.2-15.7-6.2c-4.6,0-8.9,1.8-12,5c-3.4,3.7-5.1,8.6-5.1,14.6c0,5.4,1.7,10.3,4.7,13.9
		c3.3,3.9,7.9,5.9,13.3,5.9c3.8,0,6.8-0.6,10.1-1.9l1.1-0.5v-6.8v-15.7h17.8V147l-0.3,0.2c-3.3,2.3-7.5,4.4-12.3,5.9
		C287.6,154.8,281.9,155.7,276.6,155.7z"/>
	<path class="st2" d="M328,153.8c-9.2,0-16.6-3.4-21.8-10l-0.1-0.2l11.5-13.3l0.2,0.3c2.4,3.2,5.1,4.8,8.3,4.8c0.6,0,2.1,0,3.4-1.3
		c1.4-1.3,2.1-3.6,2.1-7.1V98.8l-16.1-0.2l0.2-17.9h35.9v46.1c0,8.5-1.9,15.1-5.6,19.6C342,151.3,335.9,153.8,328,153.8z"/>
	<path class="st2" d="M353.7,151.9V80.6h46.6v15.3h-27.7v14.4h21.1v12.3h-21.1v14h27.8v15.3L353.7,151.9L353.7,151.9z"/>
	<path class="st2" d="M439.8,156.1c-5.5,0-10.7-0.8-15.4-2.3c-5.4-1.8-9.9-4.5-13.4-8.1c-6.4-6.5-9.4-15.7-9.1-27.5
		c0.2-6.4,1.6-12.1,4.3-17.1c2.3-4.4,5.4-8,9.5-11c6.4-4.8,15-7.5,22.9-7.5h0.2c5.4,0,9.3,0.7,12.9,2.3c4.2,1.8,8.2,5,12.6,10
		l0.8,0.8l-11,13.1l-0.9-0.9c-0.8-0.8-1.9-1.8-3.4-2.9c-3.6-2.4-7.3-3.6-11.2-3.6c-4.4,0-8.6,1.8-11.6,5.2c-3,3.3-4.7,7.8-4.7,12.5
		c0,4.9,1.6,9.5,4.4,12.9c2.1,2.6,5.9,5.6,11.8,5.6c4.5,0,8.5-1.2,11.8-3.4c1.4-1,2.4-2,2.9-2.7l0.9-1l11,12.1l-0.5,0.8
		c-0.8,1.3-2.5,3.7-5.4,6.1c-2.3,1.9-4.9,3.5-7.8,4.7C447.8,155.3,443.9,156.1,439.8,156.1z"/>
	<path class="st2" d="M470.5,151.9V95.8h-17.9V80.6h54.9v15.2h-17.9v56.1L470.5,151.9L470.5,151.9z"/>
	<path class="st2" d="M524.3,153.9c-10.7,0-20.4-3.9-28.8-11.2l-2.6-2.4l11.4-13.6l2.9,2.4c2.9,2.5,5.8,4.4,8.8,5.6
		c2.8,1.2,5.8,1.8,8.7,1.8c2.6,0,4.6-0.5,6-1.5c1-0.8,1.5-1.7,1.5-2.9c0-1.2-0.4-2-1.3-2.7c-1-0.8-3.3-1.9-8.5-3.2
		c-4.8-1.1-8.5-2.2-11-3.2c-2.8-1.1-5.2-2.5-7.4-4.2c-2.3-1.8-4.2-4.1-5.4-6.9c-1.1-2.6-1.7-5.7-1.7-9.1c0-3.4,0.7-6.6,1.9-9.3
		c1.3-2.8,3.4-5.3,5.9-7.2c4.9-3.6,11-5.4,18-5.4c4.4,0,8.9,0.7,13.2,2.2c4.3,1.4,8.3,3.5,11.5,6.3l2.7,2.2l-10.1,14.2l-3-2.8
		c-1.5-1.3-3.7-2.5-6.4-3.4c-2.8-1-5.6-1.4-8.3-1.4c-2.3,0-4.3,0.4-5.7,1.3c-0.8,0.4-1.2,1.1-1.2,2.6c0,1.3,0.4,2.2,1.4,2.9
		c0.8,0.6,3.6,1.9,11.5,3.8c7.1,1.8,12.5,4.2,16.2,7.4c4.1,3.6,6.2,8.8,6.2,15.4c0,3.3-0.7,6.3-1.9,9c-1.2,2.7-3.2,5.2-5.7,7.2
		C538.2,151.8,531.9,153.9,524.3,153.9z"/>
</g>
<g>
	<g>
		<path class="st0" d="M140.9,94.4c-6.7,0-12.9-1.2-18.6-3.5c-5.5-2.2-10.4-5.5-14.5-9.6c-4.1-4.2-7.2-9.2-9.4-14.9
			C96.2,60.6,95,54.1,95,47.3c0-6.9,1.2-13.4,3.5-19.2c2.2-5.7,5.3-10.7,9.4-14.9c4.1-4.2,9-7.4,14.5-9.7C128,1.2,134.2,0,140.9,0
			c6.7,0,13,1.2,18.6,3.5c5.5,2.3,10.4,5.5,14.5,9.7s7.2,9.2,9.4,14.9c2.3,5.8,3.5,12.3,3.5,19.2c0,6.8-1.2,13.3-3.5,19.1
			c-2.2,5.6-5.3,10.7-9.4,14.8c-4.1,4.2-9,7.4-14.5,9.7C153.9,93.2,147.6,94.4,140.9,94.4z M140.2,26.8c-5.3,0-10.3,2.2-13.7,6
			c-3.5,3.9-5.4,9.2-5.4,14.9s1.9,10.9,5.4,14.8c3.5,3.9,8.4,6.1,13.7,6.1c5.5,0,10.3-2.1,13.8-6.1c3.5-3.8,5.4-9.1,5.4-14.8
			s-1.9-11-5.4-14.8C150.6,28.9,145.6,26.8,140.2,26.8z"/>
	</g>
</g>
<path class="st0" d="M182.8,108.4h-43c-3.3,0-6,2.6-6,5.9v13.1c0,3.2,2.7,5.9,6,5.9h43c3.3,0,6-2.6,6-5.9v-13.1
	C188.8,111,186.1,108.4,182.8,108.4z"/>
<path class="st0" d="M181.4,2.8h-9.7c-4.2,0-7.6,5-7.6,11.1v108c0,6.1,3.4,11.1,7.6,11.1h9.7c4.2,0,7.6-5,7.6-11.1v-108
	C188.9,7.8,185.5,2.8,181.4,2.8z"/>
</svg>
