<?xml version="1.0" encoding="utf-8"?>
<!-- Generator: Adobe Illustrator 25.4.1, SVG Export Plug-In . SVG Version: 6.00 Build 0)  -->
<svg version="1.1" id="Layer_1" xmlns="http://www.w3.org/2000/svg" xmlns:xlink="http://www.w3.org/1999/xlink" x="0px" y="0px"
	 viewBox="0 0 937.5 973.3" style="enable-background:new 0 0 937.5 973.3;" xml:space="preserve">
<style type="text/css">
	.st0{fill:#8037F4;}
	.st1{fill:#DB2CBA;}
	.st2{fill:#CB5FCE;}
	.st3{fill:#F492F4;}
	.st4{fill:url(#SVGID_1_);}
	.st5{fill:url(#SVGID_00000155839984714532995200000004210853513198700931_);}
	.st6{fill:url(#SVGID_00000016784330832579644130000007786943970392395707_);}
	.st7{fill:#F253BD;}
	.st8{fill:#D46BED;}
	.st9{fill:#F4C3E7;}
	.st10{fill:#FCFFD8;}
	.st11{fill:#F4649F;}
	.st12{fill:#8E24F9;}
	.st13{fill:#DFFFD7;}
	.st14{fill:#C13EA5;}
	.st15{opacity:0.3;fill:#F4C3E7;}
	.st16{fill:#B9D1FF;}
	.st17{fill:#DCB5E5;stroke:#CF7DD3;stroke-width:11;stroke-miterlimit:10;}
	.st18{fill:#F5EDF7;stroke:#CF7DD3;stroke-width:11;stroke-miterlimit:10;}
	.st19{fill:#CB49EA;stroke:#CF7DD3;stroke-width:11;stroke-miterlimit:10;}
	.st20{fill:#FFFFFF;}
	.st21{fill:#EDB4E1;}
	.st22{fill:#FCFCFC;}
	.st23{fill:#D8CED6;}
</style>
<g>
	<polygon class="st0" points="587,552.5 581.3,549.2 581.3,586.4 587,589.7 	"/>
	<path class="st0" d="M609.5,630.1c8-4.6,15.8-6.5,25.9-6.5c0.4,0,0.8,0,1.2,0c11.2,0.5,20.7,2.9,29.4,7.8
		c8.6,4.9,13,10.3,13.5,16.2c0,0.2,0,0.4,0,0.6V611c0-0.2,0-0.4,0-0.6c-0.6-5.9-4.9-11.3-13.5-16.2c-8.6-4.9-18.1-7.3-29.4-7.8
		c-0.4,0-0.8,0-1.2,0c-10.1,0-17.8,2-25.9,6.5c-6.8,3.8-10.3,7.8-10.3,12.5v37.2C599.2,638,602.7,634,609.5,630.1z"/>
	<path class="st0" d="M829.2,647.3c-1.2,18.3-14.7,34.8-40.3,49.3c-25.3,14.3-56.4,22.8-92.1,25.5l-19.3,1.5l-17.9-43.7
		c-5.2,0.3-10.5,0.6-15.9,0.6c-2.1,0-4.2,0-6.3-0.1c-31.1-0.6-59.3-7.8-83.2-21.4c-23.6-13.4-36.3-29.4-37.4-47
		c-0.1-1-0.1-2.1-0.1-3.1v37.2c0,1,0,2.1,0.1,3.1c1.2,17.6,13.8,33.6,37.4,47c10.3,5.8,21.4,10.5,33.1,13.9
		c-1.8,15.6-13.2,31-34.3,42.9c-23,13.1-53.3,19.6-83.5,19.6s-60.5-6.5-83.5-19.6c-23-13-34.4-30-34.4-47.1V743
		c0,17,11.5,34.1,34.4,47.1c10.6,6,22.6,10.6,35.5,13.8c-1.5,16.7-12.4,31.2-32.9,42.8c-12.1,6.8-20.4,8.7-37.1,11.6v37.2
		c16.7-2.9,25-4.7,37.1-11.6c21.9-12.4,32.8-28.1,33.1-46.2c0-0.2,0-0.4,0-0.6v-33.2c15.2,3.8,31.5,5.7,47.8,5.7
		c30.2,0,60.5-6.5,83.5-19.6c23-13,34.5-30.2,34.5-47.3v-32.7c15.5,4.5,32.2,7,49.8,7.4c2.1,0.1,4.2,0.1,6.3,0.1
		c5.4,0,10.7-0.3,15.9-0.6l17.9,43.7l19.3-1.5c35.7-2.6,66.8-11.1,92.1-25.5c25.6-14.5,39.2-31,40.3-49.3c0.1-1,0.1-2,0.1-2.9v-37.2
		C829.3,645.3,829.3,646.3,829.2,647.3z"/>
	<path class="st0" d="M678,714.3c15.5-3.3,29.9-8.5,42.9-15.8c10.7-6,18.7-12.9,23.6-20.6v-18.6v18.6c1.4,2.1,1.7,4.2,1.7,6.2V647
		c0-2-0.3-4.1-1.7-6.2l0,0l0,0l0,0l0,0c-4.9,7.7-13,14.5-23.6,20.6c-13,7.3-27.3,12.6-42.9,15.8V714.3z"/>
	<path class="st0" d="M445.1,729.2c6.8-3.8,15.6-5.8,24.5-5.8c8.9,0,17.7,1.9,24.5,5.8c6.8,3.8,10.1,8.9,10.1,13.9v-37.2
		c0-5-3.4-10-10.1-13.9c-6.8-3.8-15.6-5.8-24.5-5.8c-8.9,0-17.7,1.9-24.5,5.8c-6.6,3.7-9.9,8.7-9.9,13.7v37.2
		C435.2,737.8,438.5,732.9,445.1,729.2z"/>
	<path class="st0" d="M268,819.1c8.4-4.7,17.9-6.9,29.9-6.9c12.4,0.2,23,2.9,32.8,8.5c9.5,5.4,14.1,11.1,14.1,17.5V801
		c0-6.4-4.6-12.1-14.1-17.5c-9.8-5.5-20.4-8.3-32.8-8.5c-12.1,0-21.6,2.1-29.9,6.9c-7.5,4.3-11.3,9.2-11.3,15.2v37.2
		C256.8,828.3,260.5,823.3,268,819.1z"/>
	<polygon class="st0" points="129,803.9 129,841.1 362.2,973.3 425.5,937.4 425.5,900.2 362.2,936.1 	"/>
</g>
<g>
	<polygon class="st1" points="587,515.5 581.3,512.2 581.3,549.4 587,552.7 	"/>
	<path class="st1" d="M609.5,593.1c8-4.6,15.8-6.5,25.9-6.5c0.4,0,0.8,0,1.2,0c11.2,0.5,20.7,2.9,29.4,7.8
		c8.6,4.9,13,10.3,13.5,16.2c0,0.2,0,0.4,0,0.6V574c0-0.2,0-0.4,0-0.6c-0.6-5.9-4.9-11.3-13.5-16.2c-8.6-4.9-18.1-7.3-29.4-7.8
		c-0.4,0-0.8,0-1.2,0c-10.1,0-17.8,2-25.9,6.5c-6.8,3.8-10.3,7.8-10.3,12.5v37.2C599.2,601,602.7,597,609.5,593.1z"/>
	<path class="st1" d="M829.2,610.3c-1.2,18.3-14.7,34.8-40.3,49.3c-25.3,14.3-56.4,22.8-92.1,25.5l-19.3,1.5l-17.9-43.7
		c-5.2,0.3-10.5,0.6-15.9,0.6c-2.1,0-4.2,0-6.3-0.1c-31.1-0.6-59.3-7.8-83.2-21.4c-23.6-13.4-36.3-29.4-37.4-47
		c-0.1-1-0.1-2.1-0.1-3.1v37.2c0,1,0,2.1,0.1,3.1c1.2,17.6,13.8,33.6,37.4,47c10.3,5.8,21.4,10.5,33.1,13.9
		c-1.8,15.6-13.2,31-34.3,42.9c-23,13.1-53.3,19.6-83.5,19.6s-60.5-6.5-83.5-19.6c-23-13-34.4-30-34.4-47.1V706
		c0,17,11.5,34.1,34.4,47.1c10.6,6,22.6,10.6,35.5,13.8c-1.5,16.7-12.4,31.2-32.9,42.8c-12.1,6.8-20.4,8.7-37.1,11.6v37.2
		c16.7-2.9,25-4.7,37.1-11.6c21.9-12.4,32.8-28.1,33.1-46.2c0-0.2,0-0.4,0-0.6v-33.2c15.2,3.8,31.5,5.7,47.8,5.7
		c30.2,0,60.5-6.5,83.5-19.6c23-13,34.5-30.2,34.5-47.3v-32.7c15.5,4.5,32.2,7,49.8,7.4c2.1,0.1,4.2,0.1,6.3,0.1
		c5.4,0,10.7-0.3,15.9-0.6l17.9,43.7l19.3-1.5c35.7-2.6,66.8-11.1,92.1-25.5c25.6-14.5,39.2-31,40.3-49.3c0.1-1,0.1-2,0.1-2.9v-37.2
		C829.3,608.3,829.3,609.3,829.2,610.3z"/>
	<path class="st1" d="M678,677.3c15.5-3.3,29.9-8.5,42.9-15.8c10.7-6,18.7-12.9,23.6-20.6v-18.6v18.6c1.4,2.1,1.7,4.2,1.7,6.2V610
		c0-2-0.3-4.1-1.7-6.2l0,0l0,0l0,0l0,0c-4.9,7.7-13,14.5-23.6,20.6c-13,7.3-27.3,12.6-42.9,15.8V677.3z"/>
	<path class="st1" d="M445.1,692.2c6.8-3.8,15.6-5.8,24.5-5.8c8.9,0,17.7,1.9,24.5,5.8c6.8,3.8,10.1,8.9,10.1,13.9v-37.2
		c0-5-3.4-10-10.1-13.9c-6.8-3.8-15.6-5.8-24.5-5.8c-8.9,0-17.7,1.9-24.5,5.8c-6.6,3.7-9.9,8.7-9.9,13.7v37.2
		C435.2,700.8,438.5,695.9,445.1,692.2z"/>
	<path class="st1" d="M268,782.1c8.4-4.7,17.9-6.9,29.9-6.9c12.4,0.2,23,2.9,32.8,8.5c9.5,5.4,14.1,11.1,14.1,17.5V764
		c0-6.4-4.6-12.1-14.1-17.5c-9.8-5.5-20.4-8.3-32.8-8.5c-12.1,0-21.6,2.1-29.9,6.9c-7.5,4.3-11.3,9.2-11.3,15.2v37.2
		C256.8,791.3,260.5,786.3,268,782.1z"/>
	<polygon class="st1" points="129,766.9 129,804.1 362.2,936.3 425.5,900.4 425.5,863.2 362.2,899.1 	"/>
</g>
<g>
	<polygon class="st2" points="587,478.5 581.3,475.2 581.3,512.4 587,515.7 	"/>
	<path class="st2" d="M609.5,556.1c8-4.6,15.8-6.5,25.9-6.5c0.4,0,0.8,0,1.2,0c11.2,0.5,20.7,2.9,29.4,7.8
		c8.6,4.9,13,10.3,13.5,16.2c0,0.2,0,0.4,0,0.6V537c0-0.2,0-0.4,0-0.6c-0.6-5.9-4.9-11.3-13.5-16.2c-8.6-4.9-18.1-7.3-29.4-7.8
		c-0.4,0-0.8,0-1.2,0c-10.1,0-17.8,2-25.9,6.5c-6.8,3.8-10.3,7.8-10.3,12.5v37.2C599.2,564,602.7,560,609.5,556.1z"/>
	<path class="st2" d="M829.2,573.3c-1.2,18.3-14.7,34.8-40.3,49.3c-25.3,14.3-56.4,22.8-92.1,25.5l-19.3,1.5l-17.9-43.7
		c-5.2,0.3-10.5,0.6-15.9,0.6c-2.1,0-4.2,0-6.3-0.1c-31.1-0.6-59.3-7.8-83.2-21.4c-23.6-13.4-36.3-29.4-37.4-47
		c-0.1-1-0.1-2.1-0.1-3.1v37.2c0,1,0,2.1,0.1,3.1c1.2,17.6,13.8,33.6,37.4,47c10.3,5.8,21.4,10.5,33.1,13.9
		c-1.8,15.6-13.2,31-34.3,42.9c-23,13.1-53.3,19.6-83.5,19.6s-60.5-6.5-83.5-19.6c-23-13-34.4-30-34.4-47.1V669
		c0,17,11.5,34.1,34.4,47.1c10.6,6,22.6,10.6,35.5,13.8c-1.5,16.7-12.4,31.2-32.9,42.8c-12.1,6.8-20.4,8.7-37.1,11.6v37.2
		c16.7-2.9,25-4.7,37.1-11.6c21.9-12.4,32.8-28.1,33.1-46.2c0-0.2,0-0.4,0-0.6v-33.2c15.2,3.8,31.5,5.7,47.8,5.7
		c30.2,0,60.5-6.5,83.5-19.6c23-13,34.5-30.2,34.5-47.3v-32.7c15.5,4.5,32.2,7,49.8,7.4c2.1,0.1,4.2,0.1,6.3,0.1
		c5.4,0,10.7-0.3,15.9-0.6l17.9,43.7l19.3-1.5c35.7-2.6,66.8-11.1,92.1-25.5c25.6-14.5,39.2-31,40.3-49.3c0.1-1,0.1-2,0.1-2.9v-37.2
		C829.3,571.3,829.3,572.3,829.2,573.3z"/>
	<path class="st2" d="M678,640.3c15.5-3.3,29.9-8.5,42.9-15.8c10.7-6,18.7-12.9,23.6-20.6v-18.6v18.6c1.4,2.1,1.7,4.2,1.7,6.2V573
		c0-2-0.3-4.1-1.7-6.2l0,0l0,0l0,0l0,0c-4.9,7.7-13,14.5-23.6,20.6c-13,7.3-27.3,12.6-42.9,15.8V640.3z"/>
	<path class="st2" d="M445.1,655.2c6.8-3.8,15.6-5.8,24.5-5.8c8.9,0,17.7,1.9,24.5,5.8c6.8,3.8,10.1,8.9,10.1,13.9v-37.2
		c0-5-3.4-10-10.1-13.9c-6.8-3.8-15.6-5.8-24.5-5.8c-8.9,0-17.7,1.9-24.5,5.8c-6.6,3.7-9.9,8.7-9.9,13.7v37.2
		C435.2,663.8,438.5,658.9,445.1,655.2z"/>
	<path class="st2" d="M268,745.1c8.4-4.7,17.9-6.9,29.9-6.9c12.4,0.2,23,2.9,32.8,8.5c9.5,5.4,14.1,11.1,14.1,17.5V727
		c0-6.4-4.6-12.1-14.1-17.5c-9.8-5.5-20.4-8.3-32.8-8.5c-12.1,0-21.6,2.1-29.9,6.9c-7.5,4.3-11.3,9.2-11.3,15.2v37.2
		C256.8,754.3,260.5,749.3,268,745.1z"/>
	<polygon class="st2" points="129,729.9 129,767.1 362.2,899.3 425.5,863.4 425.5,826.2 362.2,862.1 	"/>
</g>
<g>
	<polygon class="st3" points="587,441.5 581.3,438.2 581.3,475.4 587,478.7 	"/>
	<path class="st3" d="M609.5,519.1c8-4.6,15.8-6.5,25.9-6.5c0.4,0,0.8,0,1.2,0c11.2,0.5,20.7,2.9,29.4,7.8
		c8.6,4.9,13,10.3,13.5,16.2c0,0.2,0,0.4,0,0.6V500c0-0.2,0-0.4,0-0.6c-0.6-5.9-4.9-11.3-13.5-16.1c-8.6-4.9-18.1-7.3-29.4-7.8
		c-0.4,0-0.8,0-1.2,0c-10.1,0-17.8,2-25.9,6.5c-6.8,3.9-10.3,7.8-10.3,12.5v37.2C599.2,527,602.7,523,609.5,519.1z"/>
	<path class="st3" d="M829.2,536.3c-1.2,18.3-14.7,34.8-40.3,49.3c-25.3,14.3-56.4,22.8-92.1,25.5l-19.3,1.5l-17.9-43.7
		c-5.2,0.3-10.5,0.6-15.9,0.6c-2.1,0-4.2,0-6.3-0.1c-31.1-0.6-59.3-7.8-83.2-21.4c-23.6-13.4-36.3-29.4-37.4-47
		c-0.1-1-0.1-2.1-0.1-3.1v37.2c0,1,0,2.1,0.1,3.1c1.2,17.6,13.8,33.6,37.4,47c10.3,5.8,21.4,10.5,33.1,13.9
		c-1.8,15.6-13.2,31-34.3,42.9c-23,13.1-53.3,19.6-83.5,19.6s-60.5-6.5-83.5-19.6c-23-13-34.4-30-34.4-47.1V632
		c0,17,11.5,34.1,34.4,47.1c10.6,6,22.6,10.6,35.5,13.8c-1.5,16.7-12.4,31.2-32.9,42.8c-12.1,6.8-20.4,8.7-37.1,11.6v37.2
		c16.7-2.9,25-4.7,37.1-11.6c21.9-12.4,32.8-28.1,33.1-46.2c0-0.2,0-0.4,0-0.6v-33.2c15.2,3.8,31.5,5.7,47.8,5.7
		c30.2,0,60.5-6.5,83.5-19.6c23-13,34.5-30.2,34.5-47.3v-32.7c15.5,4.5,32.2,7,49.8,7.4c2.1,0.1,4.2,0.1,6.3,0.1
		c5.4,0,10.7-0.3,15.9-0.6l17.9,43.7l19.3-1.5c35.7-2.6,66.8-11.1,92.1-25.5c25.6-14.5,39.2-31,40.3-49.3c0.1-1,0.1-2,0.1-2.9v-37.2
		C829.3,534.3,829.3,535.3,829.2,536.3z"/>
	<path class="st3" d="M678,603.3c15.5-3.3,29.9-8.5,42.9-15.8c10.7-6,18.7-12.9,23.6-20.6v-18.6v18.6c1.4,2.1,1.7,4.2,1.7,6.2V536
		c0-2-0.3-4.1-1.7-6.2l0,0l0,0l0,0l0,0c-4.9,7.7-13,14.5-23.6,20.6c-13,7.3-27.3,12.6-42.9,15.8V603.3z"/>
	<path class="st3" d="M445.1,618.2c6.8-3.8,15.6-5.8,24.5-5.8c8.9,0,17.7,1.9,24.5,5.8c6.8,3.8,10.1,8.9,10.1,13.9v-37.2
		c0-5-3.4-10-10.1-13.9c-6.8-3.8-15.6-5.8-24.5-5.8c-8.9,0-17.7,1.9-24.5,5.8c-6.6,3.7-9.9,8.7-9.9,13.7v37.2
		C435.2,626.8,438.5,621.9,445.1,618.2z"/>
	<path class="st3" d="M268,708.1c8.4-4.7,17.9-6.9,29.9-6.9c12.4,0.2,23,2.9,32.8,8.5c9.5,5.4,14.1,11.1,14.1,17.5V690
		c0-6.4-4.6-12.1-14.1-17.5c-9.8-5.5-20.4-8.3-32.8-8.5c-12.1,0-21.6,2.1-29.9,6.9c-7.5,4.3-11.3,9.2-11.3,15.2v37.2
		C256.8,717.3,260.5,712.3,268,708.1z"/>
	<polygon class="st3" points="129,692.9 129,730.1 362.2,862.3 425.5,826.4 425.5,789.2 362.2,825.1 	"/>
</g>
<g>
	
		<linearGradient id="SVGID_1_" gradientUnits="userSpaceOnUse" x1="516.6545" y1="468.5963" x2="829.307" y2="468.5963" gradientTransform="matrix(1 0 0 -1 0 976.0027)">
		<stop  offset="0" style="stop-color:#52C8F4"/>
		<stop  offset="1" style="stop-color:#00F4C7"/>
	</linearGradient>
	<path class="st4" d="M786.3,482.6c29.9,17,44.6,35.1,42.9,53.7c-1.2,18.3-14.7,34.8-40.3,49.3c-25.3,14.3-56.4,22.8-92.1,25.5
		l-19.3,1.5l-17.9-43.7c-5.2,0.3-10.5,0.6-15.9,0.6c-2.1,0-4.2,0-6.3-0.1c-31.1-0.6-59.3-7.8-83.2-21.4
		c-23.6-13.4-36.3-29.4-37.4-47c-1.4-18.1,9.5-34.1,33.1-47.5c11.5-6.5,23-9.1,37.1-11.9l-5.8-3.3l63.3-35.9L786.3,482.6z
		 M668,514.7c8.1-4.6,11.8-9.6,11.5-15.3c-0.6-5.9-4.9-11.3-13.5-16.1c-8.6-4.9-18.1-7.3-29.4-7.8c-0.4,0-0.8,0-1.2,0
		c-10.1,0-17.8,2-25.9,6.5c-7.8,4.4-11.2,9-10.1,14.5c0.9,6.4,5.5,11.9,13.8,16.6c8.4,4.7,17.9,7.2,28.5,7.7c1,0,2,0.1,2.9,0.1
		C653.4,520.9,660.7,518.9,668,514.7 M729.3,554.1c10.9-6.2,16.4-12.2,17-18.1c0-2-0.3-4.1-1.7-6.2c-4.9,7.7-13,14.5-23.6,20.6
		c-13,7.3-27.3,12.6-42.9,15.8l4.3-0.5C702.5,564,718.3,560.3,729.3,554.1"/>
	
		<linearGradient id="SVGID_00000062893651121938317070000015815552281331630783_" gradientUnits="userSpaceOnUse" x1="351.6847" y1="381.4263" x2="587.615" y2="381.4263" gradientTransform="matrix(1 0 0 -1 0 976.0027)">
		<stop  offset="0" style="stop-color:#52C8F4"/>
		<stop  offset="1" style="stop-color:#00F4C7"/>
	</linearGradient>
	<path style="fill:url(#SVGID_00000062893651121938317070000015815552281331630783_);" d="M553.1,547.2c46.1,26.1,46.1,68.5,0,94.6
		c-23,13.1-53.3,19.6-83.5,19.6c-30.2,0-60.5-6.5-83.5-19.6c-46.1-26.1-45.8-68.4,0.3-94.5c23.1-13.1,53.4-19.7,83.6-19.7
		C500.1,527.7,530.1,534.2,553.1,547.2z M494,608.7c13.5-7.7,13.5-20.1,0-27.7c-6.8-3.8-15.6-5.8-24.5-5.8c-8.9,0-17.7,1.9-24.5,5.8
		c-13.2,7.5-13.2,19.9,0.3,27.6c6.8,3.8,15.7,5.8,24.6,5.8C478.7,614.3,487.5,612.5,494,608.7"/>
	
		<linearGradient id="SVGID_00000108993767120745485330000014669055466976936622_" gradientUnits="userSpaceOnUse" x1="128.98" y1="253.3114" x2="425.54" y2="253.3114" gradientTransform="matrix(1 0 0 -1 0 976.0027)">
		<stop  offset="0" style="stop-color:#52C8F4"/>
		<stop  offset="1" style="stop-color:#00F4C7"/>
	</linearGradient>
	<path style="fill:url(#SVGID_00000108993767120745485330000014669055466976936622_);" d="M351.5,747.3l74,41.9l-63.4,35.9
		L129,692.9l63.3-35.9l5.2,2.9c5.2-8.8,7.8-12.6,19.6-19.2c23-13.1,50.4-19.7,82.1-20.4c1,0,2.1,0,3.1,0c30.2,0,58.2,7,82.1,20.6
		c25,14.2,37.7,30.5,37.4,48.6c-0.3,18.1-11.2,33.8-33.1,46.2C376.6,742.5,368.2,744.3,351.5,747.3z M344.9,690.6
		c0.3-6.7-4.3-12.6-14.1-18.1c-9.8-5.5-20.4-8.3-32.8-8.5c-12.1,0-21.6,2.1-29.9,6.9c-8.1,4.6-11.8,10-11.2,16.5
		c0.3,7,5.2,13.1,15,18.6c9.8,5.5,20.1,8.2,32,8.3c11.5,0,20.4-2.1,28.5-6.7C340.6,702.9,344.6,697.7,344.9,690.6"/>
</g>
<g>
	<path class="st7" d="M622.2,904.4c-15.5,0-27.9-5.6-36.6-16.8l-0.1-0.3l19.3-22.4l0.4,0.6c4.1,5.3,8.6,8,13.9,8c1,0,3.5,0,5.6-2.1
		c2.4-2.2,3.5-6.1,3.5-12v-47.7l-27-0.3l0.4-30.1h60.4v77.6c0,14.2-3.2,25.3-9.4,33C645.9,900.2,635.6,904.4,622.2,904.4z"/>
	<path class="st7" d="M665.5,901.2v-120h78.4V807h-46.6v24.2h35.5v20.7h-35.5v23.5H744v25.8L665.5,901.2L665.5,901.2z"/>
	<path class="st7" d="M810.4,908.2c-9.3,0-18-1.3-25.9-3.9c-9-3-16.6-7.6-22.5-13.7c-10.7-11-15.8-26.5-15.3-46.2
		c0.3-10.7,2.7-20.4,7.2-28.7c3.8-7.3,9.2-13.5,16-18.5c10.7-8,25.2-12.7,38.6-12.7h0.3c9.2,0,15.6,1.1,21.7,3.8
		c7,3.1,13.8,8.5,21.3,16.8l1.3,1.3l-18.5,22l-1.5-1.5c-1.3-1.3-3.2-3-5.8-4.8c-6.1-4.1-12.2-6.1-18.9-6.1c-7.5,0-14.5,3.1-19.6,8.7
		s-7.9,13.1-7.9,21c0,8.3,2.7,15.9,7.5,21.7c3.5,4.4,9.9,9.4,19.9,9.4c7.6,0,14.4-2,19.9-5.8c2.4-1.7,4.1-3.4,4.9-4.5l1.5-1.7
		l18.5,20.4l-0.8,1.3c-1.4,2.1-4.2,6.2-9.2,10.3c-3.9,3.2-8.3,5.9-13.1,7.9C823.9,906.9,817.3,908.2,810.4,908.2z"/>
	<path class="st7" d="M862,901.2v-94.3h-30.1v-25.6h92.4v25.6h-30.1v94.3H862z"/>
</g>
<polygon class="st8" points="621.2,918.9 527.4,973 433.6,918.9 527.4,864.7 "/>
<polygon class="st9" points="597.5,863.7 525.5,905.3 453.5,863.7 525.5,822.1 "/>
<polygon class="st10" points="171.5,906.7 99.5,948.3 27.5,906.7 99.5,865.1 "/>
<polygon class="st11" points="769,229.9 734.8,249.7 700.5,229.9 734.8,210.1 "/>
<polygon class="st12" points="102,174.9 67.8,194.7 33.5,174.9 67.8,155.1 "/>
<polygon class="st12" points="718,261.9 683.8,281.7 649.5,261.9 683.8,242.1 "/>
<polygon class="st13" points="742.5,178.7 670.5,220.3 598.5,178.7 670.5,137.1 "/>
<polygon class="st14" points="937.5,453.7 865.5,495.3 793.5,453.7 865.5,412.1 "/>
<polygon class="st15" points="933.5,420.7 861.5,462.3 789.5,420.7 861.5,379.1 "/>
<polygon class="st16" points="44.5,935.3 22.3,946.6 0,935.3 22.3,924 "/>
<path class="st17" d="M526.1,366.1L53.9,638.7c-13.5,7.8-30.4-2-30.4-17.5V298.4c0-7.2,3.9-13.9,10.1-17.5L505.8,8.2
	c13.5-7.8,30.4,1.9,30.4,17.5v322.8C536.2,355.8,532.3,362.5,526.1,366.1z"/>
<path class="st18" d="M536.3,376l-460,265.6c-13.1,7.6-29.6-1.9-29.6-17.1V310.1c0-7,3.8-13.5,9.9-17.1l460-265.6
	c13.1-7.6,29.6,1.9,29.6,17.1v314.4C546.1,366,542.4,372.5,536.3,376z"/>
<polygon class="st19" points="357,381.3 102.3,528.4 102.3,344.8 357,197.7 "/>
<g>
	<path class="st20" d="M190.3,355v10.6l-39.1,40.1v-10.2l29.2-29.5l-29.2,4.3V360L190.3,355z"/>
</g>
<g>
	<path class="st21" d="M196,405l34.8-20.1v15.2L196,420.2L196,405L196,405z"/>
</g>
<g>
	<path class="st20" d="M421.9,324.8l65.2-37.7v28.5l-65.2,37.7V324.8z"/>
</g>
<g>
	<path class="st22" d="M419.8,273.2l65.2-37.7V264l-65.2,37.7V273.2z"/>
</g>
<g>
	<path class="st21" d="M201.7,507.7l34.8-20.1v15.2l-34.8,20.1V507.7z"/>
</g>
<g>
	<path class="st21" d="M315.1,444.4l34.8-20.1v15.2l-34.8,20.1V444.4z"/>
</g>
<g>
	<path class="st21" d="M415.2,392.3l34.8-20.1v15.2l-34.8,20.1V392.3z"/>
</g>
<ellipse transform="matrix(0.5 -0.866 0.866 0.5 48.5119 489.4042)" class="st20" cx="448.1" cy="202.7" rx="51.9" ry="29.9"/>
<ellipse transform="matrix(0.5 -0.866 0.866 0.5 57.57 483.0041)" class="st23" cx="447.1" cy="191.6" rx="20.2" ry="11.6"/>
</svg>
