<?xml version="1.0" encoding="utf-8"?>
<!-- Generator: Adobe Illustrator 25.4.1, SVG Export Plug-In . SVG Version: 6.00 Build 0)  -->
<svg version="1.1" id="Layer_1" xmlns="http://www.w3.org/2000/svg" xmlns:xlink="http://www.w3.org/1999/xlink" x="0px" y="0px"
	 viewBox="0 0 515.19 199.64" style="enable-background:new 0 0 515.19 199.64;" xml:space="preserve">
<style type="text/css">
	.st0{fill:#ED2273;}
	.st1{display:none;}
	.st2{display:inline;fill:#4950A2;}
	.st3{fill:#3D2C49;}
</style>
<g>
	<g>
		<g>
			<path class="st0" d="M45.89,145.44c-6.69,0-12.85-1.19-18.57-3.46c-5.51-2.16-10.37-5.51-14.47-9.61
				c-4.1-4.21-7.24-9.18-9.4-14.9C1.19,111.64,0,105.16,0,98.36c0-6.91,1.19-13.39,3.46-19.22c2.16-5.72,5.29-10.69,9.4-14.9
				c4.1-4.21,8.96-7.45,14.47-9.72c5.62-2.27,11.88-3.46,18.57-3.46c6.7,0,12.96,1.19,18.57,3.46c5.51,2.27,10.37,5.51,14.47,9.72
				c4.1,4.21,7.24,9.18,9.4,14.9c2.27,5.83,3.46,12.31,3.46,19.22c0,6.8-1.19,13.28-3.46,19.11c-2.16,5.62-5.29,10.69-9.4,14.79
				c-4.1,4.21-8.96,7.45-14.47,9.72C58.85,144.25,52.59,145.44,45.89,145.44z M45.25,77.84c-5.29,0-10.26,2.16-13.71,6.05
				c-3.46,3.89-5.4,9.18-5.4,14.9c0,5.72,1.94,10.91,5.4,14.79c3.46,3.89,8.42,6.05,13.71,6.05c5.51,0,10.26-2.05,13.82-6.05
				c3.46-3.78,5.4-9.07,5.4-14.79c0-5.72-1.94-11.01-5.4-14.79C55.61,80,50.65,77.84,45.25,77.84z"/>
		</g>
	</g>
	<g>
		<path class="st0" d="M78.75,153.01H36.83c-3.25,0-5.88,2.63-5.88,5.88v13.06c0,3.25,2.63,5.88,5.88,5.88h41.93
			c3.25,0,5.88-2.63,5.88-5.88v-13.06C84.63,155.65,82,153.01,78.75,153.01z"/>
		<path class="st0" d="M17.26,89.17H7.56C3.38,89.17,0,92.56,0,96.73v73.55c0,4.17,3.38,7.56,7.56,7.56h9.71
			c4.17,0,7.56-3.38,7.56-7.56V96.73C24.82,92.56,21.44,89.17,17.26,89.17z"/>
	</g>
</g>
<g class="st1">
	<path class="st2" d="M114.83,151.81V80.66h26.2c0.33,0,0.75,0,1.09,0c4.19,0,7.87,0.59,11.13,1.84c3.1,1.17,5.69,2.85,7.87,5.11
		c4.02,4.19,6.19,10.38,6.45,17.66c0.08,4.02-0.5,7.53-1.67,10.63c-1.17,3.01-2.93,5.61-5.27,7.7c-2.26,2.09-5.11,3.68-8.46,4.77
		c-3.26,1.09-6.95,1.67-11.05,1.76l-5.52,0.25v21.51L114.83,151.81z M138.44,97.82c-0.17,0-0.33,0-0.42,0l-4.35,0.08l0.33,15.74
		l4.35-0.17c3.01-0.08,5.27-0.84,6.86-2.18c1.59-1.34,2.34-3.35,2.26-5.86c0-1.59-0.42-3.77-2.18-5.36
		C143.79,98.57,141.45,97.82,138.44,97.82z"/>
	<path class="st2" d="M203.98,151.89c-5.19,0-9.96-0.92-14.4-2.68c-4.27-1.67-8.04-4.27-11.22-7.45c-3.18-3.26-5.61-7.12-7.28-11.55
		c-1.76-4.52-2.68-9.54-2.68-14.82c0-5.36,0.92-10.38,2.68-14.9c1.67-4.44,4.1-8.29,7.28-11.55c3.18-3.26,6.95-5.78,11.22-7.53
		c4.35-1.76,9.21-2.68,14.4-2.68c5.19,0,10.05,0.92,14.4,2.68c4.27,1.76,8.04,4.27,11.22,7.53c3.18,3.26,5.61,7.12,7.28,11.55
		c1.76,4.52,2.68,9.54,2.68,14.9c0,5.27-0.92,10.3-2.68,14.82c-1.67,4.35-4.1,8.29-7.28,11.47c-3.18,3.26-6.95,5.78-11.22,7.53
		C214.03,150.97,209.17,151.89,203.98,151.89z M203.48,99.49c-4.1,0-7.95,1.67-10.63,4.69s-4.19,7.12-4.19,11.55
		s1.51,8.46,4.19,11.47s6.53,4.69,10.63,4.69c4.27,0,7.95-1.59,10.71-4.69c2.68-2.93,4.19-7.03,4.19-11.47s-1.51-8.54-4.19-11.47
		C211.52,101.16,207.66,99.49,203.48,99.49z"/>
	<path class="st2" d="M276.56,155.66c-5.27,0-10.21-0.84-14.73-2.43c-4.69-1.59-8.71-4.02-12.05-7.12
		c-7.28-6.61-11.13-16.16-11.13-27.54c0-5.27,0.84-10.13,2.51-14.73c1.67-4.52,4.02-8.45,7.2-11.89c6.61-7.12,16.16-10.8,27.37-10.8
		c5.44,0,11.05,1.09,16.16,3.43c5.11,2.18,9.54,5.36,13.06,9.12l0.59,0.67l-13.56,11.22l-0.5-0.42c-4.52-4.19-9.79-6.2-15.74-6.2
		c-4.6,0-8.87,1.76-12.05,5.02c-3.35,3.68-5.11,8.62-5.11,14.57c0,5.44,1.67,10.3,4.69,13.9c3.26,3.85,7.87,5.86,13.31,5.86
		c3.77,0,6.78-0.59,10.13-1.92l1.09-0.5v-6.78v-15.74h17.83v33.57l-0.33,0.25c-3.26,2.34-7.53,4.44-12.31,5.86
		C287.61,154.82,281.91,155.66,276.56,155.66z"/>
	<path class="st2" d="M327.96,153.82c-9.21,0-16.57-3.35-21.76-9.96l-0.08-0.17l11.47-13.31l0.25,0.33
		c2.43,3.18,5.11,4.77,8.29,4.77c0.59,0,2.09,0,3.35-1.26c1.42-1.34,2.09-3.6,2.09-7.12V98.74l-16.07-0.17l0.25-17.91h35.91v46.12
		c0,8.46-1.93,15.07-5.61,19.59C342.02,151.31,335.91,153.82,327.96,153.82z"/>
	<path class="st2" d="M353.66,151.89V80.57h46.63v15.32h-27.71v14.4h21.09v12.3h-21.09v13.98h27.79v15.32H353.66z"/>
	<path class="st2" d="M439.79,156.08c-5.53,0-10.71-0.75-15.4-2.34c-5.36-1.76-9.88-4.52-13.39-8.12
		c-6.36-6.53-9.38-15.74-9.12-27.46c0.17-6.36,1.59-12.14,4.27-17.08c2.26-4.35,5.44-8.04,9.54-10.97
		c6.36-4.77,14.98-7.53,22.94-7.53h0.17c5.44,0,9.29,0.67,12.89,2.26c4.19,1.84,8.2,5.02,12.64,9.96l0.75,0.75l-10.97,13.06
		l-0.92-0.92c-0.75-0.75-1.93-1.76-3.43-2.85c-3.6-2.43-7.28-3.6-11.22-3.6c-4.44,0-8.62,1.84-11.64,5.19
		c-3.01,3.35-4.69,7.79-4.69,12.47c0,4.94,1.59,9.46,4.44,12.89c2.09,2.6,5.86,5.61,11.8,5.61c4.52,0,8.54-1.17,11.8-3.43
		c1.42-1,2.43-2.01,2.93-2.68l0.92-1l10.97,12.14l-0.5,0.75c-0.84,1.26-2.51,3.68-5.44,6.11c-2.34,1.93-4.94,3.52-7.79,4.69
		C447.83,155.32,443.9,156.08,439.79,156.08z"/>
	<path class="st2" d="M470.52,151.89V95.81H452.6V80.57h54.91v15.24H489.6v56.09H470.52z"/>
	<path class="st2" d="M524.26,153.9c-10.71,0-20.42-3.85-28.8-11.22l-2.59-2.43l11.38-13.64l2.85,2.43
		c2.85,2.51,5.78,4.44,8.79,5.61c2.85,1.25,5.78,1.84,8.71,1.84c2.6,0,4.6-0.5,6.03-1.51c1-0.75,1.51-1.67,1.51-2.93
		c0-1.25-0.42-2.01-1.34-2.68c-1-0.75-3.35-1.92-8.54-3.18c-4.85-1.09-8.45-2.18-11.05-3.18c-2.76-1.09-5.19-2.51-7.37-4.19
		c-2.34-1.84-4.19-4.1-5.36-6.86c-1.09-2.59-1.67-5.69-1.67-9.12c0-3.43,0.67-6.61,1.92-9.29c1.34-2.85,3.35-5.27,5.94-7.2
		c4.86-3.6,10.97-5.44,18-5.44c4.44,0,8.87,0.67,13.23,2.18c4.35,1.42,8.29,3.52,11.47,6.28l2.68,2.18l-10.13,14.23l-3.01-2.76
		c-1.51-1.34-3.68-2.51-6.36-3.43c-2.76-1-5.61-1.42-8.29-1.42c-2.34,0-4.27,0.42-5.69,1.34c-0.75,0.42-1.25,1.09-1.25,2.59
		c0,1.34,0.42,2.18,1.42,2.85c0.84,0.59,3.6,1.92,11.47,3.85c7.12,1.76,12.47,4.19,16.24,7.37c4.1,3.6,6.19,8.79,6.19,15.4
		c0,3.26-0.67,6.28-1.93,9.04c-1.25,2.68-3.18,5.19-5.69,7.2C538.24,151.81,531.87,153.9,524.26,153.9z"/>
</g>
<g>
	<g>
		<path class="st0" d="M140.89,94.37c-6.69,0-12.85-1.19-18.57-3.46c-5.51-2.16-10.37-5.51-14.47-9.61c-4.1-4.21-7.24-9.18-9.4-14.9
			C96.19,60.57,95,54.09,95,47.29c0-6.91,1.19-13.39,3.46-19.22c2.16-5.72,5.29-10.69,9.4-14.9c4.1-4.21,8.96-7.45,14.47-9.72
			c5.62-2.27,11.88-3.46,18.57-3.46c6.7,0,12.96,1.19,18.57,3.46c5.51,2.27,10.37,5.51,14.47,9.72c4.1,4.21,7.24,9.18,9.4,14.9
			c2.27,5.83,3.46,12.31,3.46,19.22c0,6.8-1.19,13.28-3.46,19.11c-2.16,5.62-5.29,10.69-9.4,14.79c-4.1,4.21-8.96,7.45-14.47,9.72
			C153.85,93.19,147.59,94.37,140.89,94.37z M140.25,26.77c-5.29,0-10.26,2.16-13.71,6.05c-3.46,3.89-5.4,9.18-5.4,14.9
			c0,5.72,1.94,10.91,5.4,14.79c3.46,3.89,8.42,6.05,13.71,6.05c5.51,0,10.26-2.05,13.82-6.05c3.46-3.78,5.4-9.07,5.4-14.79
			c0-5.72-1.94-11.01-5.4-14.79C150.61,28.93,145.65,26.77,140.25,26.77z"/>
	</g>
</g>
<path class="st0" d="M154.79,106.37h-43.04c-3.33,0-6.04,2.63-6.04,5.88v13.06c0,3.25,2.7,5.88,6.04,5.88h43.04
	c3.33,0,6.04-2.63,6.04-5.88v-13.06C160.83,109.01,158.12,106.37,154.79,106.37z"/>
<path class="st0" d="M181.37,2.79h-9.71c-4.17,0-7.56,4.97-7.56,11.1v108.02c0,6.13,3.38,11.1,7.56,11.1h9.71
	c4.17,0,7.56-4.97,7.56-11.1V13.89C188.93,7.76,185.54,2.79,181.37,2.79z"/>
<g>
	<path class="st3" d="M104.8,171.19v-67h24.67c0.32,0,0.71,0,1.02,0c3.94,0,7.41,0.55,10.48,1.73c2.92,1.1,5.36,2.68,7.41,4.81
		c3.78,3.94,5.83,9.77,6.07,16.63c0.08,3.78-0.47,7.09-1.58,10.01c-1.1,2.84-2.76,5.28-4.97,7.25c-2.13,1.97-4.81,3.47-7.96,4.49
		c-3.07,1.02-6.54,1.58-10.41,1.66l-5.2,0.24v20.26L104.8,171.19z M127.03,120.34c-0.16,0-0.32,0-0.39,0l-4.1,0.08l0.32,14.82
		l4.1-0.16c2.84-0.08,4.97-0.79,6.46-2.05c1.5-1.26,2.21-3.15,2.13-5.52c0-1.5-0.39-3.55-2.05-5.04
		C132.08,121.05,129.87,120.34,127.03,120.34z"/>
	<path class="st3" d="M188.76,171.27c-4.89,0-9.38-0.87-13.56-2.52c-4.02-1.58-7.57-4.02-10.56-7.02c-3-3.07-5.28-6.7-6.86-10.88
		c-1.66-4.26-2.52-8.99-2.52-13.95c0-5.04,0.87-9.78,2.52-14.03c1.58-4.18,3.86-7.8,6.86-10.88c3-3.07,6.54-5.44,10.56-7.09
		c4.1-1.66,8.67-2.52,13.56-2.52s9.46,0.87,13.56,2.52c4.02,1.66,7.57,4.02,10.56,7.09c3,3.08,5.28,6.7,6.86,10.88
		c1.66,4.26,2.52,8.99,2.52,14.03c0,4.97-0.87,9.7-2.52,13.95c-1.58,4.1-3.86,7.8-6.86,10.8c-3,3.07-6.54,5.44-10.56,7.09
		C198.21,170.4,193.64,171.27,188.76,171.27z M188.28,121.92c-3.86,0-7.49,1.58-10.01,4.41s-3.94,6.7-3.94,10.88
		c0,4.18,1.42,7.96,3.94,10.8s6.15,4.41,10.01,4.41c4.02,0,7.49-1.5,10.09-4.41c2.52-2.76,3.94-6.62,3.94-10.8
		c0-4.18-1.42-8.04-3.94-10.8C195.85,123.5,192.22,121.92,188.28,121.92z"/>
	<path class="st3" d="M257.1,174.81c-4.97,0-9.62-0.79-13.87-2.29c-4.41-1.5-8.2-3.78-11.35-6.7c-6.86-6.23-10.48-15.21-10.48-25.93
		c0-4.97,0.79-9.54,2.36-13.87c1.58-4.26,3.78-7.96,6.78-11.19c6.23-6.7,15.21-10.17,25.78-10.17c5.12,0,10.41,1.03,15.21,3.23
		c4.81,2.05,8.99,5.04,12.3,8.59l0.55,0.63l-12.77,10.56l-0.47-0.39c-4.26-3.94-9.22-5.83-14.82-5.83c-4.33,0-8.36,1.66-11.35,4.73
		c-3.15,3.47-4.81,8.12-4.81,13.72c0,5.12,1.58,9.7,4.41,13.08c3.07,3.63,7.41,5.52,12.53,5.52c3.55,0,6.38-0.55,9.54-1.81
		l1.03-0.47v-6.38V135h16.79v31.61l-0.32,0.24c-3.07,2.21-7.09,4.18-11.59,5.52C267.51,174.02,262.15,174.81,257.1,174.81z"/>
	<path class="st3" d="M305.5,173.08c-8.67,0-15.61-3.15-20.5-9.38l-0.08-0.16l10.8-12.53l0.24,0.32c2.29,3,4.81,4.49,7.8,4.49
		c0.55,0,1.97,0,3.15-1.18c1.34-1.26,1.97-3.39,1.97-6.7v-26.72l-15.13-0.16l0.24-16.87h33.82v43.43c0,7.96-1.81,14.19-5.28,18.45
		C318.75,170.71,312.99,173.08,305.5,173.08z"/>
	<path class="st3" d="M329.7,171.27V104.1h43.91v14.43h-26.09v13.56h19.86v11.59h-19.86v13.16h26.17v14.43H329.7z"/>
	<path class="st3" d="M410.82,175.21c-5.2,0-10.09-0.71-14.5-2.21c-5.04-1.66-9.3-4.26-12.61-7.65c-5.99-6.15-8.83-14.82-8.59-25.86
		c0.16-5.99,1.5-11.43,4.02-16.08c2.13-4.1,5.12-7.57,8.99-10.33c5.99-4.49,14.11-7.09,21.6-7.09h0.16c5.12,0,8.75,0.63,12.14,2.13
		c3.94,1.73,7.72,4.73,11.9,9.38l0.71,0.71l-10.33,12.3l-0.87-0.87c-0.71-0.71-1.81-1.66-3.23-2.68c-3.39-2.29-6.86-3.39-10.56-3.39
		c-4.18,0-8.12,1.73-10.96,4.89c-2.84,3.15-4.41,7.33-4.41,11.75c0,4.65,1.5,8.91,4.18,12.14c1.97,2.44,5.52,5.28,11.11,5.28
		c4.26,0,8.04-1.1,11.11-3.23c1.34-0.95,2.29-1.89,2.76-2.52l0.87-0.95l10.33,11.43l-0.47,0.71c-0.79,1.18-2.36,3.47-5.12,5.75
		c-2.21,1.81-4.65,3.31-7.33,4.41C418.39,174.5,414.68,175.21,410.82,175.21z"/>
	<path class="st3" d="M439.75,171.27v-52.81h-16.87V104.1h51.71v14.35h-16.87v52.81H439.75z"/>
	<path class="st3" d="M490.36,173.16c-10.09,0-19.23-3.63-27.12-10.56l-2.44-2.29l10.72-12.85l2.68,2.29
		c2.68,2.36,5.44,4.18,8.28,5.28c2.68,1.18,5.44,1.73,8.2,1.73c2.44,0,4.34-0.47,5.68-1.42c0.95-0.71,1.42-1.58,1.42-2.76
		c0-1.18-0.39-1.89-1.26-2.52c-0.95-0.71-3.15-1.81-8.04-3c-4.57-1.02-7.96-2.05-10.41-3c-2.6-1.02-4.89-2.37-6.94-3.94
		c-2.21-1.73-3.94-3.86-5.04-6.46c-1.02-2.44-1.58-5.36-1.58-8.59c0-3.23,0.63-6.23,1.81-8.75c1.26-2.68,3.15-4.97,5.6-6.78
		c4.57-3.39,10.33-5.12,16.95-5.12c4.18,0,8.36,0.63,12.45,2.05c4.1,1.34,7.8,3.31,10.8,5.91l2.52,2.05l-9.54,13.4l-2.84-2.6
		c-1.42-1.26-3.47-2.36-5.99-3.23c-2.6-0.95-5.28-1.34-7.8-1.34c-2.21,0-4.02,0.39-5.36,1.26c-0.71,0.39-1.18,1.02-1.18,2.44
		c0,1.26,0.39,2.05,1.34,2.68c0.79,0.55,3.39,1.81,10.8,3.63c6.7,1.66,11.75,3.94,15.29,6.94c3.86,3.39,5.83,8.28,5.83,14.5
		c0,3.07-0.63,5.91-1.81,8.51c-1.18,2.52-3,4.89-5.36,6.78C503.52,171.19,497.53,173.16,490.36,173.16z"/>
</g>
<g>
</g>
<g>
</g>
<g>
</g>
<g>
</g>
<g>
</g>
<g>
</g>
</svg>
